<?xml version="1.0" standalone="no"?><!DOCTYPE svg PUBLIC "-//W3C//DTD SVG 1.1//EN" "http://www.w3.org/Graphics/SVG/1.1/DTD/svg11.dtd"><svg t="1675826804380" class="icon" viewBox="0 0 1024 1024" version="1.1" xmlns="http://www.w3.org/2000/svg" p-id="4078" xmlns:xlink="http://www.w3.org/1999/xlink" width="200" height="200"><path d="M0 0h1024v1024H0V0z" fill="#202425" opacity=".01" p-id="4079"></path><path d="M34.133333 375.466667a68.266667 68.266667 0 0 1 68.266667-68.266667h68.266667a68.266667 68.266667 0 0 1 68.266666 68.266667v273.066666a68.266667 68.266667 0 0 1-68.266666 68.266667H102.4a68.266667 68.266667 0 0 1-68.266667-68.266667v-273.066666z" fill="#FFAA44" p-id="4080"></path><path d="M352.802133 276.821333l310.954667-207.325866A34.133333 34.133333 0 0 1 716.8 97.962667V926.037333a34.133333 34.133333 0 0 1-53.077333 28.398934l-310.954667-207.2576A102.4 102.4 0 0 1 307.2 661.981867v-299.963734a102.4 102.4 0 0 1 45.602133-85.230933zM957.781333 240.981333a51.2 51.2 0 0 0-72.430933-72.362666l-102.4 102.4a51.2 51.2 0 0 0 72.430933 72.362666l102.4-102.4zM819.2 563.2h136.533333a51.2 51.2 0 0 0 0-102.4h-136.533333a51.2 51.2 0 0 0 0 102.4z m-36.181333 117.418667a51.2 51.2 0 0 0 0 72.362666l102.4 102.4a51.2 51.2 0 0 0 72.362666-72.362666l-102.4-102.4a51.2 51.2 0 0 0-72.362666 0z" fill="#FF7744" p-id="4081"></path></svg>