<?xml version="1.0" standalone="no"?><!DOCTYPE svg PUBLIC "-//W3C//DTD SVG 1.1//EN" "http://www.w3.org/Graphics/SVG/1.1/DTD/svg11.dtd"><svg t="1675763644488" class="icon" viewBox="0 0 1024 1024" version="1.1" xmlns="http://www.w3.org/2000/svg" p-id="9213" xmlns:xlink="http://www.w3.org/1999/xlink" width="200" height="200"><path d="M929.6384 499.1744c-31.9488-26.624-62.1312-51.4816-94.08-78.1056a36.48 36.48 0 0 1-14.208-31.9488V200.96c0-15.9744-5.3248-21.2992-17.7408-21.2992h-97.664a15.9232 15.9232 0 0 0-17.7408 17.7408v101.1712a67.584 67.584 0 0 1-10.6496-8.8832c-35.5072-30.1824-72.7808-60.3648-108.288-90.5216a65.3824 65.3824 0 0 0-94.08 0c-65.6896 55.04-133.12 110.08-198.8096 165.0944-53.248 44.3904-108.288 90.5216-161.536 134.912-15.9744 12.416-15.9744 19.5328-3.5584 35.5072 7.0912 8.8832 15.9744 17.7408 23.04 26.624 10.6496 14.208 19.5328 14.208 31.9488 3.5584 88.7552-74.5472 179.2-149.12 268.032-223.6672 28.3904-24.8576 58.5728-47.9232 87.04-72.7808 28.3904 24.8576 58.5728 47.9232 87.04 72.7808 88.7552 74.5472 179.2 149.12 268.032 223.6672 14.208 10.6496 21.2992 10.6496 31.9488-3.5584 7.0912-8.8832 15.9744-17.7408 23.04-28.3904 14.208-14.208 12.416-21.2992-1.7664-33.7152" fill="#CF6741" p-id="9214"></path><path d="M812.4928 554.1888c-67.456-55.04-133.12-110.08-198.8096-163.3024-30.1824-24.8576-60.3648-49.7152-92.3136-76.3392a24.4992 24.4992 0 0 0-7.0912 5.3248c-95.8464 78.1056-191.7184 157.9776-285.7984 236.0832a20.1472 20.1472 0 0 0-5.3248 14.208v239.6416a32.9472 32.9472 0 0 0 37.2736 37.2736H455.68v-198.8096H588.8v198.8096h193.4848a34.0736 34.0736 0 0 0 39.0656-39.04v-236.0832a19.6608 19.6608 0 0 0-8.8832-17.7408" fill="#47B89C" p-id="9215"></path></svg>