<?xml version="1.0" standalone="no"?><!DOCTYPE svg PUBLIC "-//W3C//DTD SVG 1.1//EN" "http://www.w3.org/Graphics/SVG/1.1/DTD/svg11.dtd"><svg t="1675820854353" class="icon" viewBox="0 0 1049 1024" version="1.1" xmlns="http://www.w3.org/2000/svg" p-id="97486" xmlns:xlink="http://www.w3.org/1999/xlink" width="204.8828125" height="200"><path d="M443.4496 101.2288c137.1904-135.3344 360.192-134.784 498.0736 1.2416 137.888 136.0192 138.4512 356 1.2608 491.328-117.1712 115.584-296.928 132.0512-432.7936 49.664l-357.9072 353.0496c-32.8512 32.4096-85.6448 32.4096-118.5024 0l-4.6912-4.6272c-33.1712-32.7296-33.536-86.144-0.8128-119.3216l0.8128-0.8128 358.2976-353.4528c-76.7232-132.7616-58.0544-304.3008 56.256-417.0688z" fill="#1196db" p-id="97487" data-spm-anchor-id="a313x.7781069.0.i39" class="selected"></path><path d="M920.8256 444.512c12.416 8.1216 15.424 25.0048 6.72 37.7088a240.9856 240.9856 0 0 1-28.9088 34.6752c-10.944 10.8928-28.32 11.2576-38.8096 0.8256-10.1696-10.112-10.1312-26.6752-0.1344-37.5936l0.96-1.0112a182.816 182.816 0 0 0 21.9392-26.304c8.704-12.7104 25.8176-16.4224 38.2336-8.3008zM895.8528 198.8224c43.5136 43.2832 67.968 100.1664 69.5488 158.592 0.3968 14.848-11.3792 26.56-26.304 26.1632-14.9312-0.3968-27.36-12.7552-27.7632-27.6032-1.1904-44.3072-19.6928-87.328-52.6848-120.1472-10.8416-10.7776-11.296-27.8016-1.024-38.0224 10.272-10.2208 27.392-9.76 38.2272 1.024z" fill="#FFFFFF" p-id="97488"></path></svg>