<?xml version="1.0" standalone="no"?><!DOCTYPE svg PUBLIC "-//W3C//DTD SVG 1.1//EN" "http://www.w3.org/Graphics/SVG/1.1/DTD/svg11.dtd"><svg t="1675822848122" class="icon" viewBox="0 0 1024 1024" version="1.1" xmlns="http://www.w3.org/2000/svg" p-id="15221" xmlns:xlink="http://www.w3.org/1999/xlink" width="200" height="200"><path d="M277.6 923.45c-10.51 0-20.9-3.3-29.78-9.75-14.47-10.51-22.27-27.42-20.83-45.23l18.65-231.88L94.26 459.95c-11.62-13.56-15.27-31.81-9.75-48.81 5.52-17 19.19-29.62 36.57-33.75l226.31-53.94 121.2-198.55c9.32-15.25 25.55-24.36 43.41-24.36 17.86 0 34.1 9.1 43.4 24.36h0.02l121.19 198.55 226.31 53.94c17.38 4.13 31.05 16.75 36.58 33.75 5.51 17 1.88 35.24-9.77 48.82L778.37 636.6 797 868.47c1.43 17.81-6.35 34.73-20.82 45.23-14.43 10.51-32.89 12.68-49.45 5.78L512 830.11l-214.78 89.38c-6.35 2.65-13.01 3.96-19.62 3.96z m234.41-154.12c6.61 0 13.21 1.31 19.49 3.91l204.48 85.1-17.73-220.74c-1.09-13.36 3.32-26.91 12.07-37.15l144.12-168.16-215.43-51.35c-13.07-3.09-24.61-11.46-31.62-22.97L512 168.95 396.61 357.97c-7.05 11.51-18.58 19.87-31.66 22.97l-215.38 51.34 144.1 168.16c8.74 10.18 13.15 23.71 12.08 37.13L288 858.33l204.46-85.08c6.31-2.61 12.93-3.92 19.55-3.92zM678.6 326.7h0.2-0.2z m-5.74-4.15l0.04 0.01s-0.02 0-0.04-0.01zM504.2 156.17z" p-id="15222"></path></svg>